# xmcd CD database file
#
# Track frame offsets:
#	150
#	16291
#	52671
#	100212
#	144329
#	151955
#	154263
#	220750
#	276147
#
# Disc length: 3793 seconds
#
# Revision: 0
# Processed by: cddbd v1.5.1PL0 Copyright (c) Steve Scherf et al.
# Submitted via: CDex 1.50
#
DISCID=6d0ecf09
DTITLE=Charles Mingus and The Jazz Workshop All Stars - The Complete Birdland Broadcasts [CD2]
DYEAR=2004
DGENRE=Jazz
TTITLE0=Eat That Chicken 5-5
TTITLE1=Reets and I 5-5
TTITLE2=Monk, Funk or Vice Versa 5-5
TTITLE3=Devil Woman 5-5
TTITLE4=Eat That Chicken 5-5
TTITLE5=Intro 5-12
TTITLE6=Peggy's Blue Skylight 5-12
TTITLE7=Tijuana Table Dance (a.k.a. Ysabel's Table Dance) 5-12
TTITLE8=Eat That Chicken 5-12
EXTD=YEAR: 2004
EXTT0=
EXTT1=
EXTT2=
EXTT3=
EXTT4=
EXTT5=
EXTT6=
EXTT7=
EXTT8=
PLAYORDER=
